<mxfile host="app.diagrams.net" modified="2022-03-17T05:59:39.602Z" agent="5.0 (Windows NT 10.0; Win64; x64) AppleWebKit/537.36 (KHTML, like Gecko) Chrome/99.0.4844.51 Safari/537.36" etag="xO7yh8h0Ezt3ZjV1MHJo" version="17.1.2" type="github" pages="3">
  <diagram id="YD98dofyRIw2hhyAmhAY" name="前台">
    <mxGraphModel dx="608" dy="407" grid="1" gridSize="10" guides="1" tooltips="1" connect="1" arrows="1" fold="1" page="1" pageScale="1" pageWidth="850" pageHeight="1100" math="0" shadow="0">
      <root>
        <mxCell id="0" />
        <mxCell id="1" parent="0" />
        <mxCell id="J1Yl7nlWho_rOIZ1rX8T-74" style="edgeStyle=orthogonalEdgeStyle;rounded=0;orthogonalLoop=1;jettySize=auto;html=1;exitX=0.5;exitY=1;exitDx=0;exitDy=0;entryX=0.5;entryY=0;entryDx=0;entryDy=0;" edge="1" parent="1" source="J1Yl7nlWho_rOIZ1rX8T-1" target="J1Yl7nlWho_rOIZ1rX8T-73">
          <mxGeometry relative="1" as="geometry" />
        </mxCell>
        <mxCell id="J1Yl7nlWho_rOIZ1rX8T-75" style="edgeStyle=orthogonalEdgeStyle;rounded=0;orthogonalLoop=1;jettySize=auto;html=1;exitX=0.5;exitY=1;exitDx=0;exitDy=0;entryX=0.5;entryY=0;entryDx=0;entryDy=0;" edge="1" parent="1" source="J1Yl7nlWho_rOIZ1rX8T-1" target="J1Yl7nlWho_rOIZ1rX8T-69">
          <mxGeometry relative="1" as="geometry" />
        </mxCell>
        <mxCell id="J1Yl7nlWho_rOIZ1rX8T-1" value="动漫论坛网站前台" style="rounded=0;whiteSpace=wrap;html=1;" vertex="1" parent="1">
          <mxGeometry x="251.38" y="80" width="120" height="30" as="geometry" />
        </mxCell>
        <mxCell id="J1Yl7nlWho_rOIZ1rX8T-55" value="动漫浏览" style="rounded=0;whiteSpace=wrap;html=1;strokeColor=#000000;" vertex="1" parent="1">
          <mxGeometry x="148.63" y="242" width="22.75" height="78" as="geometry" />
        </mxCell>
        <mxCell id="J1Yl7nlWho_rOIZ1rX8T-56" value="评论浏览" style="rounded=0;whiteSpace=wrap;html=1;strokeColor=#000000;" vertex="1" parent="1">
          <mxGeometry x="208.63" y="242" width="22.75" height="78" as="geometry" />
        </mxCell>
        <mxCell id="J1Yl7nlWho_rOIZ1rX8T-57" value="动漫搜索" style="rounded=0;whiteSpace=wrap;html=1;strokeColor=#000000;" vertex="1" parent="1">
          <mxGeometry x="178.63" y="242" width="22.75" height="78" as="geometry" />
        </mxCell>
        <mxCell id="J1Yl7nlWho_rOIZ1rX8T-59" value="登录" style="rounded=0;whiteSpace=wrap;html=1;strokeColor=#000000;" vertex="1" parent="1">
          <mxGeometry x="310" y="242" width="22.75" height="78" as="geometry" />
        </mxCell>
        <mxCell id="J1Yl7nlWho_rOIZ1rX8T-60" value="注册" style="rounded=0;whiteSpace=wrap;html=1;strokeColor=#000000;" vertex="1" parent="1">
          <mxGeometry x="238.63" y="242" width="22.75" height="78" as="geometry" />
        </mxCell>
        <mxCell id="J1Yl7nlWho_rOIZ1rX8T-61" value="动漫浏览" style="rounded=0;whiteSpace=wrap;html=1;strokeColor=#000000;" vertex="1" parent="1">
          <mxGeometry x="400" y="242" width="22.75" height="78" as="geometry" />
        </mxCell>
        <mxCell id="J1Yl7nlWho_rOIZ1rX8T-62" value="评论浏览" style="rounded=0;whiteSpace=wrap;html=1;strokeColor=#000000;" vertex="1" parent="1">
          <mxGeometry x="430" y="242" width="22.75" height="78" as="geometry" />
        </mxCell>
        <mxCell id="J1Yl7nlWho_rOIZ1rX8T-63" value="动漫搜索" style="rounded=0;whiteSpace=wrap;html=1;strokeColor=#000000;" vertex="1" parent="1">
          <mxGeometry x="370" y="242" width="22.75" height="78" as="geometry" />
        </mxCell>
        <mxCell id="J1Yl7nlWho_rOIZ1rX8T-65" value="修改个人信息" style="rounded=0;whiteSpace=wrap;html=1;strokeColor=#000000;" vertex="1" parent="1">
          <mxGeometry x="338.62" y="242" width="22.75" height="100" as="geometry" />
        </mxCell>
        <mxCell id="J1Yl7nlWho_rOIZ1rX8T-85" style="edgeStyle=orthogonalEdgeStyle;rounded=0;orthogonalLoop=1;jettySize=auto;html=1;exitX=0.5;exitY=1;exitDx=0;exitDy=0;entryX=0.5;entryY=0;entryDx=0;entryDy=0;" edge="1" parent="1" source="J1Yl7nlWho_rOIZ1rX8T-69" target="J1Yl7nlWho_rOIZ1rX8T-61">
          <mxGeometry relative="1" as="geometry" />
        </mxCell>
        <mxCell id="J1Yl7nlWho_rOIZ1rX8T-86" style="edgeStyle=orthogonalEdgeStyle;rounded=0;orthogonalLoop=1;jettySize=auto;html=1;exitX=0.5;exitY=1;exitDx=0;exitDy=0;entryX=0.5;entryY=0;entryDx=0;entryDy=0;" edge="1" parent="1" source="J1Yl7nlWho_rOIZ1rX8T-69" target="J1Yl7nlWho_rOIZ1rX8T-62">
          <mxGeometry relative="1" as="geometry" />
        </mxCell>
        <mxCell id="J1Yl7nlWho_rOIZ1rX8T-87" style="edgeStyle=orthogonalEdgeStyle;rounded=0;orthogonalLoop=1;jettySize=auto;html=1;exitX=0.5;exitY=1;exitDx=0;exitDy=0;entryX=0.5;entryY=0;entryDx=0;entryDy=0;" edge="1" parent="1" source="J1Yl7nlWho_rOIZ1rX8T-69" target="J1Yl7nlWho_rOIZ1rX8T-70">
          <mxGeometry relative="1" as="geometry" />
        </mxCell>
        <mxCell id="J1Yl7nlWho_rOIZ1rX8T-88" style="edgeStyle=orthogonalEdgeStyle;rounded=0;orthogonalLoop=1;jettySize=auto;html=1;exitX=0.5;exitY=1;exitDx=0;exitDy=0;entryX=0.5;entryY=0;entryDx=0;entryDy=0;" edge="1" parent="1" source="J1Yl7nlWho_rOIZ1rX8T-69" target="J1Yl7nlWho_rOIZ1rX8T-71">
          <mxGeometry relative="1" as="geometry" />
        </mxCell>
        <mxCell id="J1Yl7nlWho_rOIZ1rX8T-89" style="edgeStyle=orthogonalEdgeStyle;rounded=0;orthogonalLoop=1;jettySize=auto;html=1;exitX=0.5;exitY=1;exitDx=0;exitDy=0;entryX=0.5;entryY=0;entryDx=0;entryDy=0;" edge="1" parent="1" source="J1Yl7nlWho_rOIZ1rX8T-69" target="J1Yl7nlWho_rOIZ1rX8T-63">
          <mxGeometry relative="1" as="geometry" />
        </mxCell>
        <mxCell id="J1Yl7nlWho_rOIZ1rX8T-90" style="edgeStyle=orthogonalEdgeStyle;rounded=0;orthogonalLoop=1;jettySize=auto;html=1;exitX=0.5;exitY=1;exitDx=0;exitDy=0;entryX=0.5;entryY=0;entryDx=0;entryDy=0;" edge="1" parent="1" source="J1Yl7nlWho_rOIZ1rX8T-69" target="J1Yl7nlWho_rOIZ1rX8T-65">
          <mxGeometry relative="1" as="geometry" />
        </mxCell>
        <mxCell id="J1Yl7nlWho_rOIZ1rX8T-91" style="edgeStyle=orthogonalEdgeStyle;rounded=0;orthogonalLoop=1;jettySize=auto;html=1;exitX=0.5;exitY=1;exitDx=0;exitDy=0;" edge="1" parent="1" source="J1Yl7nlWho_rOIZ1rX8T-69" target="J1Yl7nlWho_rOIZ1rX8T-59">
          <mxGeometry relative="1" as="geometry" />
        </mxCell>
        <mxCell id="J1Yl7nlWho_rOIZ1rX8T-69" value="注册用户" style="rounded=0;whiteSpace=wrap;html=1;" vertex="1" parent="1">
          <mxGeometry x="361.37" y="160" width="92.75" height="20" as="geometry" />
        </mxCell>
        <mxCell id="J1Yl7nlWho_rOIZ1rX8T-70" value="评论发表" style="rounded=0;whiteSpace=wrap;html=1;strokeColor=#000000;" vertex="1" parent="1">
          <mxGeometry x="460" y="242" width="22.75" height="78" as="geometry" />
        </mxCell>
        <mxCell id="J1Yl7nlWho_rOIZ1rX8T-71" value="回复发表" style="rounded=0;whiteSpace=wrap;html=1;strokeColor=#000000;" vertex="1" parent="1">
          <mxGeometry x="490" y="242" width="22.75" height="78" as="geometry" />
        </mxCell>
        <mxCell id="J1Yl7nlWho_rOIZ1rX8T-76" style="edgeStyle=orthogonalEdgeStyle;rounded=0;orthogonalLoop=1;jettySize=auto;html=1;exitX=0.5;exitY=1;exitDx=0;exitDy=0;entryX=0.5;entryY=0;entryDx=0;entryDy=0;" edge="1" parent="1" source="J1Yl7nlWho_rOIZ1rX8T-73" target="J1Yl7nlWho_rOIZ1rX8T-55">
          <mxGeometry relative="1" as="geometry" />
        </mxCell>
        <mxCell id="J1Yl7nlWho_rOIZ1rX8T-77" style="edgeStyle=orthogonalEdgeStyle;rounded=0;orthogonalLoop=1;jettySize=auto;html=1;exitX=0.5;exitY=1;exitDx=0;exitDy=0;entryX=0.5;entryY=0;entryDx=0;entryDy=0;" edge="1" parent="1" source="J1Yl7nlWho_rOIZ1rX8T-73" target="J1Yl7nlWho_rOIZ1rX8T-57">
          <mxGeometry relative="1" as="geometry" />
        </mxCell>
        <mxCell id="J1Yl7nlWho_rOIZ1rX8T-78" style="edgeStyle=orthogonalEdgeStyle;rounded=0;orthogonalLoop=1;jettySize=auto;html=1;exitX=0.5;exitY=1;exitDx=0;exitDy=0;entryX=0.5;entryY=0;entryDx=0;entryDy=0;" edge="1" parent="1" source="J1Yl7nlWho_rOIZ1rX8T-73" target="J1Yl7nlWho_rOIZ1rX8T-56">
          <mxGeometry relative="1" as="geometry" />
        </mxCell>
        <mxCell id="J1Yl7nlWho_rOIZ1rX8T-79" style="edgeStyle=orthogonalEdgeStyle;rounded=0;orthogonalLoop=1;jettySize=auto;html=1;exitX=0.5;exitY=1;exitDx=0;exitDy=0;entryX=0.5;entryY=0;entryDx=0;entryDy=0;" edge="1" parent="1" source="J1Yl7nlWho_rOIZ1rX8T-73" target="J1Yl7nlWho_rOIZ1rX8T-60">
          <mxGeometry relative="1" as="geometry" />
        </mxCell>
        <mxCell id="J1Yl7nlWho_rOIZ1rX8T-73" value="普通用户" style="rounded=0;whiteSpace=wrap;html=1;" vertex="1" parent="1">
          <mxGeometry x="158.63" y="160" width="92.75" height="20" as="geometry" />
        </mxCell>
      </root>
    </mxGraphModel>
  </diagram>
  <diagram id="MHOBLaw7wB0YtkQJVM_M" name="后台">
    <mxGraphModel dx="730" dy="488" grid="1" gridSize="10" guides="1" tooltips="1" connect="1" arrows="1" fold="1" page="1" pageScale="1" pageWidth="850" pageHeight="1100" math="0" shadow="0">
      <root>
        <mxCell id="tDTGI98sIQKwBXnNucom-0" />
        <mxCell id="tDTGI98sIQKwBXnNucom-1" parent="tDTGI98sIQKwBXnNucom-0" />
        <mxCell id="t2z1IDxn-JT4RPIQTloD-27" style="edgeStyle=orthogonalEdgeStyle;rounded=0;orthogonalLoop=1;jettySize=auto;html=1;exitX=0.5;exitY=1;exitDx=0;exitDy=0;entryX=0.5;entryY=0;entryDx=0;entryDy=0;" edge="1" parent="tDTGI98sIQKwBXnNucom-1" source="tDTGI98sIQKwBXnNucom-2" target="t2z1IDxn-JT4RPIQTloD-3">
          <mxGeometry relative="1" as="geometry" />
        </mxCell>
        <mxCell id="t2z1IDxn-JT4RPIQTloD-28" style="edgeStyle=orthogonalEdgeStyle;rounded=0;orthogonalLoop=1;jettySize=auto;html=1;exitX=0.5;exitY=1;exitDx=0;exitDy=0;entryX=0.5;entryY=0;entryDx=0;entryDy=0;" edge="1" parent="tDTGI98sIQKwBXnNucom-1" source="tDTGI98sIQKwBXnNucom-2" target="t2z1IDxn-JT4RPIQTloD-2">
          <mxGeometry relative="1" as="geometry" />
        </mxCell>
        <mxCell id="t2z1IDxn-JT4RPIQTloD-29" style="edgeStyle=orthogonalEdgeStyle;rounded=0;orthogonalLoop=1;jettySize=auto;html=1;exitX=0.5;exitY=1;exitDx=0;exitDy=0;entryX=0.5;entryY=0;entryDx=0;entryDy=0;" edge="1" parent="tDTGI98sIQKwBXnNucom-1" source="tDTGI98sIQKwBXnNucom-2" target="t2z1IDxn-JT4RPIQTloD-1">
          <mxGeometry relative="1" as="geometry" />
        </mxCell>
        <mxCell id="t2z1IDxn-JT4RPIQTloD-33" style="edgeStyle=orthogonalEdgeStyle;rounded=0;orthogonalLoop=1;jettySize=auto;html=1;exitX=0.5;exitY=1;exitDx=0;exitDy=0;entryX=0.5;entryY=0;entryDx=0;entryDy=0;" edge="1" parent="tDTGI98sIQKwBXnNucom-1" source="tDTGI98sIQKwBXnNucom-2" target="t2z1IDxn-JT4RPIQTloD-0">
          <mxGeometry relative="1" as="geometry" />
        </mxCell>
        <mxCell id="tDTGI98sIQKwBXnNucom-2" value="动漫管理" style="rounded=0;whiteSpace=wrap;html=1;strokeColor=#000000;" vertex="1" parent="tDTGI98sIQKwBXnNucom-1">
          <mxGeometry x="62.75" y="180" width="22.75" height="78" as="geometry" />
        </mxCell>
        <mxCell id="-gQlYl5WSa2aYS39pL_N-11" style="edgeStyle=orthogonalEdgeStyle;rounded=0;orthogonalLoop=1;jettySize=auto;html=1;exitX=0.5;exitY=1;exitDx=0;exitDy=0;entryX=0.5;entryY=0;entryDx=0;entryDy=0;" edge="1" parent="tDTGI98sIQKwBXnNucom-1" source="tDTGI98sIQKwBXnNucom-3" target="t2z1IDxn-JT4RPIQTloD-20">
          <mxGeometry relative="1" as="geometry" />
        </mxCell>
        <mxCell id="-gQlYl5WSa2aYS39pL_N-15" style="edgeStyle=orthogonalEdgeStyle;rounded=0;orthogonalLoop=1;jettySize=auto;html=1;exitX=0.5;exitY=1;exitDx=0;exitDy=0;entryX=0.5;entryY=0;entryDx=0;entryDy=0;" edge="1" parent="tDTGI98sIQKwBXnNucom-1" source="tDTGI98sIQKwBXnNucom-3" target="-gQlYl5WSa2aYS39pL_N-12">
          <mxGeometry relative="1" as="geometry" />
        </mxCell>
        <mxCell id="tDTGI98sIQKwBXnNucom-3" value="用户管理" style="rounded=0;whiteSpace=wrap;html=1;strokeColor=#000000;" vertex="1" parent="tDTGI98sIQKwBXnNucom-1">
          <mxGeometry x="560" y="180" width="24.75" height="78" as="geometry" />
        </mxCell>
        <mxCell id="DADCRARwcBSg6AGUBXQS-4" style="edgeStyle=orthogonalEdgeStyle;rounded=0;orthogonalLoop=1;jettySize=auto;html=1;exitX=0.5;exitY=1;exitDx=0;exitDy=0;entryX=0.5;entryY=0;entryDx=0;entryDy=0;" edge="1" parent="tDTGI98sIQKwBXnNucom-1" source="tDTGI98sIQKwBXnNucom-4" target="DADCRARwcBSg6AGUBXQS-5">
          <mxGeometry relative="1" as="geometry">
            <mxPoint x="355.28571428571433" y="320" as="targetPoint" />
          </mxGeometry>
        </mxCell>
        <mxCell id="-gQlYl5WSa2aYS39pL_N-9" style="edgeStyle=orthogonalEdgeStyle;rounded=0;orthogonalLoop=1;jettySize=auto;html=1;exitX=0.5;exitY=1;exitDx=0;exitDy=0;entryX=0.5;entryY=0;entryDx=0;entryDy=0;" edge="1" parent="tDTGI98sIQKwBXnNucom-1" source="tDTGI98sIQKwBXnNucom-4" target="-gQlYl5WSa2aYS39pL_N-7">
          <mxGeometry relative="1" as="geometry" />
        </mxCell>
        <mxCell id="-gQlYl5WSa2aYS39pL_N-10" style="edgeStyle=orthogonalEdgeStyle;rounded=0;orthogonalLoop=1;jettySize=auto;html=1;exitX=0.5;exitY=1;exitDx=0;exitDy=0;" edge="1" parent="tDTGI98sIQKwBXnNucom-1" source="tDTGI98sIQKwBXnNucom-4" target="-gQlYl5WSa2aYS39pL_N-8">
          <mxGeometry relative="1" as="geometry" />
        </mxCell>
        <mxCell id="tDTGI98sIQKwBXnNucom-4" value="公告管理" style="rounded=0;whiteSpace=wrap;html=1;strokeColor=#000000;" vertex="1" parent="tDTGI98sIQKwBXnNucom-1">
          <mxGeometry x="490" y="180" width="22.75" height="78" as="geometry" />
        </mxCell>
        <mxCell id="-gQlYl5WSa2aYS39pL_N-3" style="edgeStyle=orthogonalEdgeStyle;rounded=0;orthogonalLoop=1;jettySize=auto;html=1;exitX=0.5;exitY=1;exitDx=0;exitDy=0;entryX=0.5;entryY=0;entryDx=0;entryDy=0;" edge="1" parent="tDTGI98sIQKwBXnNucom-1" source="tDTGI98sIQKwBXnNucom-5" target="t2z1IDxn-JT4RPIQTloD-4">
          <mxGeometry relative="1" as="geometry" />
        </mxCell>
        <mxCell id="-gQlYl5WSa2aYS39pL_N-4" style="edgeStyle=orthogonalEdgeStyle;rounded=0;orthogonalLoop=1;jettySize=auto;html=1;exitX=0.5;exitY=1;exitDx=0;exitDy=0;" edge="1" parent="tDTGI98sIQKwBXnNucom-1" source="tDTGI98sIQKwBXnNucom-5" target="t2z1IDxn-JT4RPIQTloD-5">
          <mxGeometry relative="1" as="geometry" />
        </mxCell>
        <mxCell id="-gQlYl5WSa2aYS39pL_N-5" style="edgeStyle=orthogonalEdgeStyle;rounded=0;orthogonalLoop=1;jettySize=auto;html=1;exitX=0.5;exitY=1;exitDx=0;exitDy=0;entryX=0.5;entryY=0;entryDx=0;entryDy=0;" edge="1" parent="tDTGI98sIQKwBXnNucom-1" source="tDTGI98sIQKwBXnNucom-5" target="t2z1IDxn-JT4RPIQTloD-6">
          <mxGeometry relative="1" as="geometry" />
        </mxCell>
        <mxCell id="-gQlYl5WSa2aYS39pL_N-6" style="edgeStyle=orthogonalEdgeStyle;rounded=0;orthogonalLoop=1;jettySize=auto;html=1;exitX=0.5;exitY=1;exitDx=0;exitDy=0;" edge="1" parent="tDTGI98sIQKwBXnNucom-1" source="tDTGI98sIQKwBXnNucom-5" target="t2z1IDxn-JT4RPIQTloD-7">
          <mxGeometry relative="1" as="geometry" />
        </mxCell>
        <mxCell id="tDTGI98sIQKwBXnNucom-5" value="预告管理" style="rounded=0;whiteSpace=wrap;html=1;strokeColor=#000000;" vertex="1" parent="tDTGI98sIQKwBXnNucom-1">
          <mxGeometry x="375.69" y="180" width="22.75" height="78" as="geometry" />
        </mxCell>
        <mxCell id="DADCRARwcBSg6AGUBXQS-0" style="edgeStyle=orthogonalEdgeStyle;rounded=0;orthogonalLoop=1;jettySize=auto;html=1;exitX=0.5;exitY=1;exitDx=0;exitDy=0;entryX=0.5;entryY=0;entryDx=0;entryDy=0;" edge="1" parent="tDTGI98sIQKwBXnNucom-1" source="tDTGI98sIQKwBXnNucom-6" target="DADCRARwcBSg6AGUBXQS-1">
          <mxGeometry relative="1" as="geometry">
            <mxPoint x="290" y="310" as="targetPoint" />
          </mxGeometry>
        </mxCell>
        <mxCell id="-gQlYl5WSa2aYS39pL_N-1" style="edgeStyle=orthogonalEdgeStyle;rounded=0;orthogonalLoop=1;jettySize=auto;html=1;exitX=0.5;exitY=1;exitDx=0;exitDy=0;entryX=0.5;entryY=0;entryDx=0;entryDy=0;" edge="1" parent="tDTGI98sIQKwBXnNucom-1" source="tDTGI98sIQKwBXnNucom-6" target="t2z1IDxn-JT4RPIQTloD-26">
          <mxGeometry relative="1" as="geometry" />
        </mxCell>
        <mxCell id="-gQlYl5WSa2aYS39pL_N-2" style="edgeStyle=orthogonalEdgeStyle;rounded=0;orthogonalLoop=1;jettySize=auto;html=1;exitX=0.5;exitY=1;exitDx=0;exitDy=0;entryX=0.5;entryY=0;entryDx=0;entryDy=0;" edge="1" parent="tDTGI98sIQKwBXnNucom-1" source="tDTGI98sIQKwBXnNucom-6" target="t2z1IDxn-JT4RPIQTloD-25">
          <mxGeometry relative="1" as="geometry" />
        </mxCell>
        <mxCell id="tDTGI98sIQKwBXnNucom-6" value="回复管理" style="rounded=0;whiteSpace=wrap;html=1;strokeColor=#000000;" vertex="1" parent="tDTGI98sIQKwBXnNucom-1">
          <mxGeometry x="261.38" y="180" width="22.75" height="78" as="geometry" />
        </mxCell>
        <mxCell id="DADCRARwcBSg6AGUBXQS-3" style="edgeStyle=orthogonalEdgeStyle;rounded=0;orthogonalLoop=1;jettySize=auto;html=1;exitX=0.5;exitY=1;exitDx=0;exitDy=0;entryX=0.5;entryY=0;entryDx=0;entryDy=0;" edge="1" parent="tDTGI98sIQKwBXnNucom-1" source="tDTGI98sIQKwBXnNucom-7" target="DADCRARwcBSg6AGUBXQS-2">
          <mxGeometry relative="1" as="geometry" />
        </mxCell>
        <mxCell id="t2z1IDxn-JT4RPIQTloD-34" style="edgeStyle=orthogonalEdgeStyle;rounded=0;orthogonalLoop=1;jettySize=auto;html=1;exitX=0.5;exitY=1;exitDx=0;exitDy=0;entryX=0.5;entryY=0;entryDx=0;entryDy=0;" edge="1" parent="tDTGI98sIQKwBXnNucom-1" source="tDTGI98sIQKwBXnNucom-7" target="t2z1IDxn-JT4RPIQTloD-19">
          <mxGeometry relative="1" as="geometry" />
        </mxCell>
        <mxCell id="t2z1IDxn-JT4RPIQTloD-35" style="edgeStyle=orthogonalEdgeStyle;rounded=0;orthogonalLoop=1;jettySize=auto;html=1;exitX=0.5;exitY=1;exitDx=0;exitDy=0;entryX=0.5;entryY=0;entryDx=0;entryDy=0;" edge="1" parent="tDTGI98sIQKwBXnNucom-1" source="tDTGI98sIQKwBXnNucom-7" target="t2z1IDxn-JT4RPIQTloD-18">
          <mxGeometry relative="1" as="geometry" />
        </mxCell>
        <mxCell id="tDTGI98sIQKwBXnNucom-7" value="评论管理" style="rounded=0;whiteSpace=wrap;html=1;strokeColor=#000000;" vertex="1" parent="tDTGI98sIQKwBXnNucom-1">
          <mxGeometry x="160.31" y="180" width="24.88" height="78" as="geometry" />
        </mxCell>
        <mxCell id="0kkSxsZ54RZXSQP1eyoQ-0" style="edgeStyle=orthogonalEdgeStyle;rounded=0;orthogonalLoop=1;jettySize=auto;html=1;exitX=0.5;exitY=1;exitDx=0;exitDy=0;entryX=0.5;entryY=0;entryDx=0;entryDy=0;" edge="1" parent="tDTGI98sIQKwBXnNucom-1" source="2HbOb7sO--AGeonbYp1p-29" target="tDTGI98sIQKwBXnNucom-6">
          <mxGeometry relative="1" as="geometry" />
        </mxCell>
        <mxCell id="0kkSxsZ54RZXSQP1eyoQ-1" style="edgeStyle=orthogonalEdgeStyle;rounded=0;orthogonalLoop=1;jettySize=auto;html=1;exitX=0.5;exitY=1;exitDx=0;exitDy=0;entryX=0.5;entryY=0;entryDx=0;entryDy=0;" edge="1" parent="tDTGI98sIQKwBXnNucom-1" source="2HbOb7sO--AGeonbYp1p-29" target="tDTGI98sIQKwBXnNucom-2">
          <mxGeometry relative="1" as="geometry" />
        </mxCell>
        <mxCell id="0kkSxsZ54RZXSQP1eyoQ-2" style="edgeStyle=orthogonalEdgeStyle;rounded=0;orthogonalLoop=1;jettySize=auto;html=1;exitX=0.5;exitY=1;exitDx=0;exitDy=0;entryX=0.5;entryY=0;entryDx=0;entryDy=0;" edge="1" parent="tDTGI98sIQKwBXnNucom-1" source="2HbOb7sO--AGeonbYp1p-29" target="tDTGI98sIQKwBXnNucom-7">
          <mxGeometry relative="1" as="geometry" />
        </mxCell>
        <mxCell id="0kkSxsZ54RZXSQP1eyoQ-3" style="edgeStyle=orthogonalEdgeStyle;rounded=0;orthogonalLoop=1;jettySize=auto;html=1;exitX=0.5;exitY=1;exitDx=0;exitDy=0;entryX=0.5;entryY=0;entryDx=0;entryDy=0;" edge="1" parent="tDTGI98sIQKwBXnNucom-1" source="2HbOb7sO--AGeonbYp1p-29" target="tDTGI98sIQKwBXnNucom-5">
          <mxGeometry relative="1" as="geometry" />
        </mxCell>
        <mxCell id="0kkSxsZ54RZXSQP1eyoQ-4" style="edgeStyle=orthogonalEdgeStyle;rounded=0;orthogonalLoop=1;jettySize=auto;html=1;exitX=0.5;exitY=1;exitDx=0;exitDy=0;entryX=0.5;entryY=0;entryDx=0;entryDy=0;" edge="1" parent="tDTGI98sIQKwBXnNucom-1" source="2HbOb7sO--AGeonbYp1p-29" target="tDTGI98sIQKwBXnNucom-4">
          <mxGeometry relative="1" as="geometry" />
        </mxCell>
        <mxCell id="0kkSxsZ54RZXSQP1eyoQ-5" style="edgeStyle=orthogonalEdgeStyle;rounded=0;orthogonalLoop=1;jettySize=auto;html=1;exitX=0.5;exitY=1;exitDx=0;exitDy=0;entryX=0.5;entryY=0;entryDx=0;entryDy=0;" edge="1" parent="tDTGI98sIQKwBXnNucom-1" source="2HbOb7sO--AGeonbYp1p-29" target="tDTGI98sIQKwBXnNucom-3">
          <mxGeometry relative="1" as="geometry" />
        </mxCell>
        <mxCell id="2HbOb7sO--AGeonbYp1p-29" value="动漫论坛网站后台" style="rounded=0;whiteSpace=wrap;html=1;" vertex="1" parent="tDTGI98sIQKwBXnNucom-1">
          <mxGeometry x="261.38" y="90" width="120" height="30" as="geometry" />
        </mxCell>
        <mxCell id="DADCRARwcBSg6AGUBXQS-1" value="审批" style="rounded=0;whiteSpace=wrap;html=1;strokeColor=#000000;" vertex="1" parent="tDTGI98sIQKwBXnNucom-1">
          <mxGeometry x="294.01" y="320" width="22.75" height="78" as="geometry" />
        </mxCell>
        <mxCell id="DADCRARwcBSg6AGUBXQS-2" value="审批" style="rounded=0;whiteSpace=wrap;html=1;strokeColor=#000000;" vertex="1" parent="tDTGI98sIQKwBXnNucom-1">
          <mxGeometry x="192.44" y="320" width="22.75" height="78" as="geometry" />
        </mxCell>
        <mxCell id="DADCRARwcBSg6AGUBXQS-5" value="公告发布" style="rounded=0;whiteSpace=wrap;html=1;strokeColor=#000000;" vertex="1" parent="tDTGI98sIQKwBXnNucom-1">
          <mxGeometry x="520" y="320" width="22.75" height="78" as="geometry" />
        </mxCell>
        <mxCell id="t2z1IDxn-JT4RPIQTloD-0" value="动漫添加" style="rounded=0;whiteSpace=wrap;html=1;strokeColor=#000000;" vertex="1" parent="tDTGI98sIQKwBXnNucom-1">
          <mxGeometry x="10" y="320" width="22.75" height="78" as="geometry" />
        </mxCell>
        <mxCell id="t2z1IDxn-JT4RPIQTloD-1" value="动漫修改" style="rounded=0;whiteSpace=wrap;html=1;strokeColor=#000000;" vertex="1" parent="tDTGI98sIQKwBXnNucom-1">
          <mxGeometry x="40" y="320" width="22.75" height="78" as="geometry" />
        </mxCell>
        <mxCell id="t2z1IDxn-JT4RPIQTloD-2" value="动漫查询" style="rounded=0;whiteSpace=wrap;html=1;strokeColor=#000000;" vertex="1" parent="tDTGI98sIQKwBXnNucom-1">
          <mxGeometry x="70" y="320" width="22.75" height="78" as="geometry" />
        </mxCell>
        <mxCell id="t2z1IDxn-JT4RPIQTloD-3" value="动漫删除" style="rounded=0;whiteSpace=wrap;html=1;strokeColor=#000000;" vertex="1" parent="tDTGI98sIQKwBXnNucom-1">
          <mxGeometry x="101.38" y="320" width="22.75" height="78" as="geometry" />
        </mxCell>
        <mxCell id="t2z1IDxn-JT4RPIQTloD-4" value="预告添加" style="rounded=0;whiteSpace=wrap;html=1;strokeColor=#000000;" vertex="1" parent="tDTGI98sIQKwBXnNucom-1">
          <mxGeometry x="330" y="320" width="22.75" height="78" as="geometry" />
        </mxCell>
        <mxCell id="t2z1IDxn-JT4RPIQTloD-5" value="预告修改" style="rounded=0;whiteSpace=wrap;html=1;strokeColor=#000000;" vertex="1" parent="tDTGI98sIQKwBXnNucom-1">
          <mxGeometry x="360" y="320" width="22.75" height="78" as="geometry" />
        </mxCell>
        <mxCell id="t2z1IDxn-JT4RPIQTloD-6" value="预告查询" style="rounded=0;whiteSpace=wrap;html=1;strokeColor=#000000;" vertex="1" parent="tDTGI98sIQKwBXnNucom-1">
          <mxGeometry x="390" y="320" width="22.75" height="78" as="geometry" />
        </mxCell>
        <mxCell id="t2z1IDxn-JT4RPIQTloD-7" value="预告删除" style="rounded=0;whiteSpace=wrap;html=1;strokeColor=#000000;" vertex="1" parent="tDTGI98sIQKwBXnNucom-1">
          <mxGeometry x="421.38" y="320" width="22.75" height="78" as="geometry" />
        </mxCell>
        <mxCell id="t2z1IDxn-JT4RPIQTloD-18" value="评论查询" style="rounded=0;whiteSpace=wrap;html=1;strokeColor=#000000;" vertex="1" parent="tDTGI98sIQKwBXnNucom-1">
          <mxGeometry x="130" y="320" width="22.75" height="78" as="geometry" />
        </mxCell>
        <mxCell id="t2z1IDxn-JT4RPIQTloD-19" value="评论删除" style="rounded=0;whiteSpace=wrap;html=1;strokeColor=#000000;" vertex="1" parent="tDTGI98sIQKwBXnNucom-1">
          <mxGeometry x="161.38" y="320" width="22.75" height="78" as="geometry" />
        </mxCell>
        <mxCell id="t2z1IDxn-JT4RPIQTloD-20" value="用户修改" style="rounded=0;whiteSpace=wrap;html=1;strokeColor=#000000;" vertex="1" parent="tDTGI98sIQKwBXnNucom-1">
          <mxGeometry x="580" y="320" width="22.75" height="78" as="geometry" />
        </mxCell>
        <mxCell id="t2z1IDxn-JT4RPIQTloD-25" value="回复查询" style="rounded=0;whiteSpace=wrap;html=1;strokeColor=#000000;" vertex="1" parent="tDTGI98sIQKwBXnNucom-1">
          <mxGeometry x="230" y="320" width="22.75" height="78" as="geometry" />
        </mxCell>
        <mxCell id="t2z1IDxn-JT4RPIQTloD-26" value="回复删除" style="rounded=0;whiteSpace=wrap;html=1;strokeColor=#000000;" vertex="1" parent="tDTGI98sIQKwBXnNucom-1">
          <mxGeometry x="261.38" y="320" width="22.75" height="78" as="geometry" />
        </mxCell>
        <mxCell id="-gQlYl5WSa2aYS39pL_N-7" value="公告查询" style="rounded=0;whiteSpace=wrap;html=1;strokeColor=#000000;" vertex="1" parent="tDTGI98sIQKwBXnNucom-1">
          <mxGeometry x="460" y="320" width="22.75" height="78" as="geometry" />
        </mxCell>
        <mxCell id="-gQlYl5WSa2aYS39pL_N-8" value="公告删除" style="rounded=0;whiteSpace=wrap;html=1;strokeColor=#000000;" vertex="1" parent="tDTGI98sIQKwBXnNucom-1">
          <mxGeometry x="491.38" y="320" width="22.75" height="78" as="geometry" />
        </mxCell>
        <mxCell id="-gQlYl5WSa2aYS39pL_N-12" value="用户查询" style="rounded=0;whiteSpace=wrap;html=1;strokeColor=#000000;" vertex="1" parent="tDTGI98sIQKwBXnNucom-1">
          <mxGeometry x="550" y="320" width="22.75" height="78" as="geometry" />
        </mxCell>
      </root>
    </mxGraphModel>
  </diagram>
  <diagram id="sViNLuOQ2zEDuKdO3-DQ" name="备用">
    <mxGraphModel dx="730" dy="488" grid="1" gridSize="10" guides="1" tooltips="1" connect="1" arrows="1" fold="1" page="1" pageScale="1" pageWidth="850" pageHeight="1100" math="0" shadow="0">
      <root>
        <mxCell id="ha8Ii0unCOp1DOvmIdGo-0" />
        <mxCell id="ha8Ii0unCOp1DOvmIdGo-1" parent="ha8Ii0unCOp1DOvmIdGo-0" />
        <mxCell id="ha8Ii0unCOp1DOvmIdGo-2" value="动漫添加" style="rounded=0;whiteSpace=wrap;html=1;strokeColor=#000000;" vertex="1" parent="ha8Ii0unCOp1DOvmIdGo-1">
          <mxGeometry x="60" y="280" width="22.75" height="78" as="geometry" />
        </mxCell>
        <mxCell id="ha8Ii0unCOp1DOvmIdGo-3" value="动漫修改" style="rounded=0;whiteSpace=wrap;html=1;strokeColor=#000000;" vertex="1" parent="ha8Ii0unCOp1DOvmIdGo-1">
          <mxGeometry x="90" y="280" width="22.75" height="78" as="geometry" />
        </mxCell>
        <mxCell id="ha8Ii0unCOp1DOvmIdGo-4" value="动漫查询" style="rounded=0;whiteSpace=wrap;html=1;strokeColor=#000000;" vertex="1" parent="ha8Ii0unCOp1DOvmIdGo-1">
          <mxGeometry x="120" y="280" width="22.75" height="78" as="geometry" />
        </mxCell>
        <mxCell id="ha8Ii0unCOp1DOvmIdGo-5" value="动漫删除" style="rounded=0;whiteSpace=wrap;html=1;strokeColor=#000000;" vertex="1" parent="ha8Ii0unCOp1DOvmIdGo-1">
          <mxGeometry x="151.38" y="280" width="22.75" height="78" as="geometry" />
        </mxCell>
        <mxCell id="ha8Ii0unCOp1DOvmIdGo-6" value="预告添加" style="rounded=0;whiteSpace=wrap;html=1;strokeColor=#000000;" vertex="1" parent="ha8Ii0unCOp1DOvmIdGo-1">
          <mxGeometry x="202.63" y="280" width="22.75" height="78" as="geometry" />
        </mxCell>
        <mxCell id="ha8Ii0unCOp1DOvmIdGo-7" value="预告修改" style="rounded=0;whiteSpace=wrap;html=1;strokeColor=#000000;" vertex="1" parent="ha8Ii0unCOp1DOvmIdGo-1">
          <mxGeometry x="232.63" y="280" width="22.75" height="78" as="geometry" />
        </mxCell>
        <mxCell id="ha8Ii0unCOp1DOvmIdGo-8" value="预告查询" style="rounded=0;whiteSpace=wrap;html=1;strokeColor=#000000;" vertex="1" parent="ha8Ii0unCOp1DOvmIdGo-1">
          <mxGeometry x="262.63" y="280" width="22.75" height="78" as="geometry" />
        </mxCell>
        <mxCell id="ha8Ii0unCOp1DOvmIdGo-9" value="预告删除" style="rounded=0;whiteSpace=wrap;html=1;strokeColor=#000000;" vertex="1" parent="ha8Ii0unCOp1DOvmIdGo-1">
          <mxGeometry x="294.01" y="280" width="22.75" height="78" as="geometry" />
        </mxCell>
      </root>
    </mxGraphModel>
  </diagram>
</mxfile>
